<svg width="79" height="81" viewBox="0 0 79 81" fill="none" xmlns="http://www.w3.org/2000/svg">
<path d="M77.2332 19.4731L77.2098 19.3797C75.304 11.7367 66.7117 3.53571 58.821 1.82956L58.7321 1.81132C45.9694 -0.603772 33.0286 -0.603772 20.2687 1.81132L20.177 1.82956C12.2891 3.53571 3.69653 11.7373 1.78822 19.3797L1.76705 19.4731C-0.589016 30.1465 -0.589016 40.971 1.76705 51.6443L1.78822 51.7377C3.61545 59.0543 11.5677 66.8789 19.1639 69.0306V77.5622C19.1639 80.6503 22.9574 82.1668 25.1145 79.9383L33.8285 70.9531C35.7187 71.0579 37.6098 71.1165 39.5003 71.1165C45.9245 71.1165 52.3519 70.5137 58.7319 69.3064L58.8207 69.2882C66.7114 67.582 75.3037 59.3804 77.2095 51.738L77.2329 51.6446C79.589 40.971 79.589 30.147 77.2332 19.4731ZM70.3369 50.0968C69.0644 55.0831 62.5407 61.282 57.3571 62.4274C50.5712 63.7076 43.7312 64.2546 36.8982 64.0669C36.7622 64.063 36.6315 64.1155 36.5371 64.2123C35.5672 65.1995 30.1746 70.6914 30.1746 70.6914L23.4074 77.5812C22.9125 78.0931 22.0432 77.7446 22.0432 77.0384V62.905C22.0432 62.6714 21.8752 62.4732 21.644 62.4279C21.6426 62.4274 21.6414 62.4274 21.6401 62.4271C16.4565 61.2817 9.93497 55.0829 8.66025 50.0965C6.53963 40.4489 6.53963 30.6686 8.66025 21.0209C9.93497 16.0346 16.4565 9.83573 21.6401 8.69037C33.4917 6.45438 45.5083 6.45438 57.3574 8.69037C62.5435 9.83573 69.0647 16.0346 70.3372 21.0209C72.4601 30.6688 72.46 40.4492 70.3369 50.0968Z" fill="#E600DC" fill-opacity="0.3"/>
<path d="M50.7757 56.6205C49.9789 56.3803 49.2196 56.2192 48.5138 55.9293C41.2052 52.9213 34.4792 49.0408 29.1515 43.0926C26.1218 39.7102 23.7504 35.8913 21.7459 31.85C20.7953 29.9335 19.9942 27.9421 19.1776 25.9632C18.4331 24.1589 19.5297 22.2949 20.6844 20.9351C21.7679 19.659 23.1625 18.6828 24.6726 17.9628C25.8512 17.4012 27.0136 17.7251 27.8746 18.7159C29.7353 20.8585 31.4449 23.1105 32.8286 25.5942C33.6798 27.1218 33.4463 28.9891 31.9035 30.0286C31.5285 30.2812 31.1869 30.578 30.8378 30.8633C30.5313 31.1134 30.2432 31.366 30.0331 31.7046C29.6494 32.324 29.6311 33.055 29.8779 33.7286C31.7801 38.9139 34.9863 42.9464 40.2481 45.1186C41.0901 45.466 41.9355 45.8704 42.9056 45.7584C44.53 45.5702 45.0561 43.8024 46.1946 42.879C47.3071 41.9766 48.7292 41.9647 49.9276 42.717C51.1265 43.4699 52.2884 44.2775 53.4436 45.0943C54.5776 45.8958 55.7063 46.6794 56.752 47.5934C57.7578 48.472 58.1042 49.6246 57.5377 50.8166C56.5012 53.0004 54.9925 54.8165 52.8167 55.9763C52.2023 56.303 51.4684 56.4088 50.7757 56.6205C51.4684 56.4088 49.9789 56.3803 50.7757 56.6205Z" fill="#E600DC" fill-opacity="0.3"/>
<path d="M39.5195 15.4662C49.0789 15.732 56.9309 22.0251 58.6135 31.4003C58.9002 32.9978 59.0022 34.6307 59.1298 36.2523C59.1836 36.9341 58.794 37.582 58.0523 37.5911C57.2861 37.6002 56.9415 36.964 56.8913 36.2827C56.793 34.9334 56.7247 33.5777 56.5372 32.2399C55.5478 25.1757 49.8694 19.3315 42.7811 18.0775C41.7143 17.8887 40.6232 17.8392 39.5424 17.7267C38.8595 17.6557 37.9651 17.6148 37.8138 16.7724C37.687 16.0662 38.2877 15.504 38.9656 15.4678C39.1492 15.457 39.3345 15.4656 39.5195 15.4662C39.3345 15.4656 49.0795 15.732 39.5195 15.4662Z" fill="#E600DC" fill-opacity="0.3"/>
<path d="M54.0473 34.1482C54.0314 34.2667 54.0233 34.5451 53.9531 34.8071C53.6995 35.759 52.244 35.8781 51.9094 34.9176C51.8099 34.6327 51.7951 34.3082 51.7946 34.0014C51.7912 31.9932 51.3513 29.9866 50.3301 28.239C49.2805 26.4427 47.6768 24.9333 45.7963 24.0193C44.659 23.4671 43.4294 23.1235 42.1828 22.9193C41.6381 22.8297 41.0875 22.7758 40.54 22.7001C39.8766 22.6086 39.5222 22.1893 39.554 21.5409C39.5832 20.9334 40.031 20.4959 40.6986 20.5338C42.8922 20.657 45.0114 21.128 46.9621 22.1523C50.928 24.236 53.1938 27.5245 53.8553 31.916C53.8851 32.1153 53.933 32.3121 53.9483 32.5117C53.9857 33.0042 54.0094 33.4975 54.0473 34.1482C54.0094 33.4975 54.0314 34.2662 54.0473 34.1482Z" fill="#E600DC" fill-opacity="0.3"/>
<path d="M48.1016 33.9183C47.3019 33.9326 46.8739 33.4932 46.7912 32.7663C46.7341 32.2594 46.6884 31.7453 46.5663 31.2516C46.3261 30.2796 45.8054 29.3791 44.9812 28.7835C44.5922 28.5024 44.1512 28.2976 43.6895 28.1649C43.103 27.9966 42.4933 28.043 41.9085 27.901C41.273 27.7465 40.9213 27.2357 41.0214 26.6445C41.1122 26.1061 41.6399 25.686 42.2331 25.7288C45.9394 25.9942 48.5883 27.8949 48.9664 32.2232C48.9934 32.5286 49.0246 32.8511 48.9564 33.1438C48.8388 33.6432 48.4654 33.8939 48.1016 33.9183C48.4654 33.8939 47.3016 33.9324 48.1016 33.9183Z" fill="#E600DC" fill-opacity="0.3"/>
<path d="M77.2333 19.4734L77.2098 19.3799C76.1416 15.0956 72.9714 10.6364 69.0021 7.24341L63.636 11.9608C66.8268 14.4829 69.5607 17.9767 70.3375 21.0209C72.4607 30.6688 72.4607 40.4488 70.3375 50.097C69.0651 55.0833 62.541 61.2822 57.3577 62.4276C50.5718 63.7078 43.7318 64.2548 36.8988 64.0671C36.7628 64.0632 36.6321 64.1157 36.5377 64.2125C35.5678 65.1997 30.1752 70.6916 30.1752 70.6916L23.408 77.5814C22.9131 78.0933 22.0438 77.7453 22.0438 77.0386V62.9052C22.0438 62.6716 21.8758 62.4734 21.6445 62.4281C21.6432 62.4281 21.642 62.4276 21.6406 62.4276C18.6947 61.7767 15.3181 59.4929 12.7168 56.7281L7.41455 61.3889C10.726 64.9623 14.9971 67.8511 19.1637 69.0313V77.5629C19.1637 80.651 22.9572 82.1676 25.1143 79.939L33.8283 70.9539C35.7185 71.0586 37.609 71.1172 39.5 71.1172C45.9243 71.1172 52.3517 70.5144 58.7316 69.3072L58.8205 69.2892C66.7112 67.583 75.3035 59.382 77.2093 51.739L77.2327 51.6456C79.589 40.9712 79.589 30.1472 77.2333 19.4734Z" fill="#E600DC" fill-opacity="0.3"/>
<path d="M50.7756 56.621C51.4683 56.4093 49.9787 56.3809 50.7756 56.621V56.621Z" fill="#E600DC" fill-opacity="0.3"/>
<path d="M56.7526 47.5936C55.7069 46.6802 54.5777 45.896 53.4442 45.0945C52.289 44.2778 51.1271 43.4702 49.9282 42.7173C48.7298 41.965 47.308 41.9768 46.1952 42.8792C45.0567 43.8027 44.5309 45.5704 42.9063 45.7587C41.9364 45.8706 41.0907 45.466 40.2487 45.1188C37.0114 43.7828 34.555 41.7397 32.6985 39.1602L28.7532 42.6288C28.8872 42.7828 29.0151 42.9409 29.1513 43.0929C34.4792 49.0411 41.2055 52.9216 48.5136 55.9295C49.2188 56.2197 49.9786 56.3811 50.7755 56.6208C49.9786 56.3806 51.4687 56.4093 50.7755 56.6208C51.4687 56.4093 52.2021 56.3029 52.817 55.9762C54.9934 54.8165 56.5016 53.0001 57.5381 50.8166C58.1048 49.6248 57.7584 48.4723 56.7526 47.5936Z" fill="#E600DC" fill-opacity="0.3"/>
<path d="M39.5443 15.4684C39.5361 15.4684 39.5282 15.4675 39.52 15.4675C39.5121 15.467 39.5223 15.4675 39.5443 15.4684Z" fill="#E600DC" fill-opacity="0.3"/>
<path d="M39.519 15.4661C39.5271 15.4661 39.5349 15.4669 39.543 15.4669C40.0735 15.4857 48.702 15.7215 39.519 15.4661Z" fill="#E600DC" fill-opacity="0.3"/>
<path d="M53.2318 21.1077L51.5497 22.5866C54.193 25.1377 56.0158 28.5188 56.5368 32.2395C56.7241 33.5778 56.7929 34.9329 56.8912 36.2823C56.9411 36.9641 57.2855 37.6001 58.0523 37.5912C58.7942 37.5821 59.1835 36.9345 59.1297 36.2524C59.0018 34.6311 58.9001 32.9977 58.6134 31.4004C57.877 27.2966 55.9581 23.7834 53.2318 21.1077Z" fill="#E600DC" fill-opacity="0.3"/>
<path d="M53.8547 31.9148C53.373 28.7148 52.0347 26.1035 49.8119 24.114L48.1345 25.5886C49.0019 26.3522 49.7522 27.2491 50.3301 28.2383C51.3513 29.9859 51.7912 31.9925 51.7946 34.0007C51.7951 34.3075 51.8099 34.632 51.9094 34.9175C52.2445 35.8785 53.6995 35.7594 53.9531 34.807C54.0233 34.5444 54.0314 34.2661 54.0473 34.148C54.0314 34.2666 54.0088 33.4977 54.0473 34.148C54.0088 33.4977 53.9854 33.0041 53.9478 32.511C53.933 32.3106 53.8848 32.1138 53.8547 31.9148Z" fill="#E600DC" fill-opacity="0.3"/>
<path d="M54.047 34.1485C54.0096 33.4978 54.0314 34.2665 54.047 34.1485V34.1485Z" fill="#E600DC" fill-opacity="0.3"/>
<path d="M48.1019 33.919C48.1145 33.9182 48.1266 33.9118 48.1386 33.9104C48.1047 33.9104 48.0526 33.9112 47.9991 33.9132C48.0339 33.914 48.0655 33.9193 48.1019 33.919Z" fill="#E600DC" fill-opacity="0.3"/>
<path d="M48.1014 33.9196C48.0655 33.9202 48.0337 33.9149 47.9991 33.9138C47.8261 33.9185 47.6475 33.9276 48.1014 33.9196Z" fill="#E600DC" fill-opacity="0.3"/>
<path d="M48.1381 33.9104C48.1255 33.9118 48.1135 33.9182 48.1014 33.919C48.1955 33.9126 48.1874 33.9104 48.1381 33.9104Z" fill="#E600DC" fill-opacity="0.3"/>
<path d="M46.4135 27.1021L44.7061 28.6034C44.8002 28.6601 44.8925 28.7192 44.9819 28.7836C45.8061 29.3792 46.3268 30.2797 46.567 31.2518C46.689 31.7454 46.7342 32.2589 46.7919 32.7664C46.8707 33.4609 47.2683 33.888 48 33.9128C48.0532 33.9115 48.1056 33.9104 48.1388 33.9101C48.4909 33.8714 48.844 33.6265 48.9568 33.1434C49.0251 32.8512 48.9939 32.5281 48.9668 32.2227C48.7545 29.8029 47.8323 28.1427 46.4135 27.1021Z" fill="#E600DC" fill-opacity="0.3"/>
</svg>
