<svg width="79" height="79" viewBox="0 0 79 79" fill="none" xmlns="http://www.w3.org/2000/svg">
<path fill-rule="evenodd" clip-rule="evenodd" d="M67.4894 11.4808C60.063 4.0813 50.1869 0.00451971 39.6648 0C17.984 0 0.338337 17.5602 0.329633 39.1441C0.326984 46.0434 2.13788 52.7778 5.58028 58.7148L0 79L20.852 73.5564C26.5972 76.675 33.0657 78.319 39.6489 78.3213H39.6652C61.3437 78.3213 78.9909 60.7588 79 39.1746C79.0038 28.7152 74.9157 18.88 67.4894 11.4808ZM39.6652 71.7101H39.6519C33.7856 71.7078 28.0316 70.1391 23.0122 67.1746L21.8181 66.4699L9.44427 69.7L12.747 57.6933L11.9697 56.4617C8.69721 51.2818 6.96844 45.2943 6.97109 39.146C6.97828 21.2065 21.6444 6.61158 39.6784 6.61158C48.4105 6.61459 56.6195 10.0032 62.792 16.1538C68.9646 22.304 72.3616 30.4787 72.3582 39.1727C72.351 57.1137 57.6848 71.7101 39.6652 71.7101ZM57.5981 47.3409C56.6153 46.8517 51.7836 44.4852 50.8825 44.1587C49.9818 43.8329 49.3263 43.6694 48.6712 44.6487C48.0161 45.628 46.1322 47.831 45.5588 48.4841C44.9855 49.1364 44.4121 49.2185 43.4297 48.7285C42.4464 48.2392 39.2799 47.2061 35.5257 43.8736C32.604 41.28 30.6315 38.077 30.0582 37.0974C29.4848 36.1181 29.9969 35.5889 30.4892 35.1012C30.9313 34.6628 31.4721 33.9585 31.9637 33.3875C32.4553 32.8165 32.6188 32.4082 32.9465 31.7555C33.2743 31.1028 33.1104 30.5314 32.8644 30.0421C32.6188 29.5521 30.6531 24.7375 29.8341 22.779C29.0364 20.872 28.2261 21.13 27.6228 21.0999C27.0502 21.0716 26.3944 21.0652 25.7389 21.0652C25.0838 21.0652 24.0192 21.3101 23.1181 22.2893C22.2174 23.2686 19.6784 25.635 19.6784 30.4497C19.6784 35.2643 23.1999 39.9151 23.6915 40.5682C24.1827 41.2209 30.6221 51.1006 40.4811 55.3378C42.8256 56.3457 44.6566 56.9472 46.0841 57.3984C48.4388 58.143 50.5813 58.0376 52.2745 57.786C54.1629 57.505 58.0894 55.4196 58.9084 53.1348C59.7273 50.8498 59.7273 48.8912 59.4817 48.4833C59.2361 48.0758 58.581 47.831 57.5981 47.3409Z" fill="#23B000" fill-opacity="0.3"/>
</svg>
