<svg width="70" height="70" viewBox="0 0 70 70" fill="none" xmlns="http://www.w3.org/2000/svg">
<path fill-rule="evenodd" clip-rule="evenodd" d="M35 70C54.33 70 70 54.33 70 35C70 15.67 54.33 0 35 0C15.67 0 0 15.67 0 35C0 54.33 15.67 70 35 70ZM44.4142 33.5858L31.6863 20.8579C30.9052 20.0768 29.6389 20.0768 28.8579 20.8579C28.0768 21.6389 28.0768 22.9052 28.8579 23.6863L40.1716 35L28.8579 46.3137C28.0768 47.0948 28.0768 48.3611 28.8579 49.1421C29.6389 49.9232 30.9052 49.9232 31.6863 49.1421L44.4142 36.4142C45.1953 35.6332 45.1953 34.3668 44.4142 33.5858Z" fill="white"/>
</svg>
