<svg width="1920" height="538" viewBox="0 0 1920 538" fill="none" xmlns="http://www.w3.org/2000/svg">
<path fill-rule="evenodd" clip-rule="evenodd" d="M1920 0L1902 77C1884 154 1849 307 1813 317C1778 326 1742 192 1707 182C1671 173 1636 288 1600 317C1564 346 1529 288 1493 307C1458 326 1422 422 1387 461C1351 499 1316 480 1280 490C1244 499 1209 538 1173 538C1138 538 1102 499 1067 451C1031 403 996 346 960 336C924 326 889 365 853 384C818 403 782 403 747 422C711 442 676 480 640 442C604 403 569 288 533 288C498 288 462 403 427 403C391 403 356 288 320 269C284 250 249 326 213 374C178 422 142 442 107 451C71 461 36 461 18 461H0V0H18C36 0 71 0 107 0C142 0 178 0 213 0C249 0 284 0 320 0C356 0 391 0 427 0C462 0 498 0 533 0C569 0 604 0 640 0C676 0 711 0 747 0C782 0 818 0 853 0C889 0 924 0 960 0C996 0 1031 0 1067 0C1102 0 1138 0 1173 0C1209 0 1244 0 1280 0C1316 0 1351 0 1387 0C1422 0 1458 0 1493 0C1529 0 1564 0 1600 0C1636 0 1671 0 1707 0C1742 0 1778 0 1813 0C1849 0 1884 0 1902 0H1920Z" fill="#D9CCC6"/>
</svg>
