<svg width="1920" height="218" viewBox="0 0 1920 218" fill="none" xmlns="http://www.w3.org/2000/svg">
<path fill-rule="evenodd" clip-rule="evenodd" d="M0 0L46 28C91 57 183 115 274 115C366 115 457 57 549 67C640 76 731 153 823 163C914 172 1006 115 1097 76C1189 38 1280 19 1371 28C1463 38 1554 76 1646 76C1737 76 1829 38 1874 19L1920 0V218H1874C1829 218 1737 218 1646 218C1554 218 1463 218 1371 218C1280 218 1189 218 1097 218C1006 218 914 218 823 218C731 218 549 218 549 218C458 218 274 218 274 218C182 218 46 218 46 218H0V0Z" fill="#D9CCC6"/>
</svg>
