<svg width="1920" height="330" viewBox="0 0 1920 330" fill="none" xmlns="http://www.w3.org/2000/svg">
<path fill-rule="evenodd" clip-rule="evenodd" d="M1920 287.375L1874 268.416C1829 249.458 1737 210.542 1646 191.584C1554 172.625 1463 172.625 1371 182.603C1280 191.584 1189 210.542 1097 201.562C1006 191.584 914 153.666 823 105.77C731 57.8742 640 0 549 0C457 0 366 57.8742 274 105.77C183 153.666 91 191.584 46 210.542L0 230.499V460H46C91 460 183 460 274 460C366 460 457 460 549 460C640 460 731 460 823 460C914 460 1006 460 1097 460C1189 460 1280 460 1371 460C1463 460 1554 460 1646 460C1737 460 1829 460 1874 460H1920V287.375Z" fill="#D9CCC6"/>
</svg>
