<svg width="1920" height="460" viewBox="0 0 1920 460" fill="none" xmlns="http://www.w3.org/2000/svg">
<path fill-rule="evenodd" clip-rule="evenodd" d="M1920 287.375L1874 268.416C1829 249.458 1737 210.542 1646 191.584C1554 172.625 1463 172.625 1371 182.603C1280 191.584 1189 210.542 1097 201.562C1006 191.584 914 153.666 823 105.77C731 57.8742 640 0 549 0C457 0 366 57.8742 274 105.77C183 153.666 91 191.584 46 210.542L0 230.499V460H46C91 460 183 460 274 460C366 460 457 460 549 460C640 460 731 460 823 460C914 460 1006 460 1097 460C1189 460 1280 460 1371 460C1463 460 1554 460 1646 460C1737 460 1829 460 1874 460H1920V287.375Z" fill="#D9CCC6"/>
<mask id="path-2-inside-1" fill="white">
<path d="M591 110.5C591 137.286 569.286 159 542.5 159C515.714 159 494 137.286 494 110.5C494 83.7142 515.714 62 542.5 62C569.286 62 591 83.7142 591 110.5Z"/>
</mask>
<path d="M539.879 138.121C541.05 139.293 542.95 139.293 544.121 138.121L563.213 119.029C564.385 117.858 564.385 115.958 563.213 114.787C562.042 113.615 560.142 113.615 558.971 114.787L542 131.757L525.029 114.787C523.858 113.615 521.958 113.615 520.787 114.787C519.615 115.958 519.615 117.858 520.787 119.029L539.879 138.121ZM539 85L539 136L545 136L545 85L539 85ZM585 110.5C585 133.972 565.972 153 542.5 153V165C572.6 165 597 140.6 597 110.5H585ZM542.5 153C519.028 153 500 133.972 500 110.5H488C488 140.6 512.4 165 542.5 165V153ZM500 110.5C500 87.0279 519.028 68 542.5 68V56C512.4 56 488 80.4005 488 110.5H500ZM542.5 68C565.972 68 585 87.0279 585 110.5H597C597 80.4005 572.6 56 542.5 56V68Z" fill="white" mask="url(#path-2-inside-1)"/>
</svg>
