<svg width="97" height="97" viewBox="0 0 97 97" fill="none" xmlns="http://www.w3.org/2000/svg">
<mask id="path-1-inside-1" fill="white">
<path d="M97 48.5C97 75.2858 75.2858 97 48.5 97C21.7142 97 0 75.2858 0 48.5C0 21.7142 21.7142 0 48.5 0C75.2858 0 97 21.7142 97 48.5Z"/>
</mask>
<path d="M45.8787 76.1213C47.0503 77.2929 48.9498 77.2929 50.1213 76.1213L69.2132 57.0294C70.3848 55.8579 70.3848 53.9584 69.2132 52.7868C68.0416 51.6152 66.1421 51.6152 64.9706 52.7868L48 69.7574L31.0294 52.7868C29.8579 51.6152 27.9584 51.6152 26.7868 52.7868C25.6152 53.9584 25.6152 55.8579 26.7868 57.0294L45.8787 76.1213ZM45 23L45 74H51L51 23H45ZM91 48.5C91 71.9721 71.9721 91 48.5 91V103C78.5995 103 103 78.5995 103 48.5H91ZM48.5 91C25.0279 91 6 71.9721 6 48.5H-6C-6 78.5995 18.4005 103 48.5 103V91ZM6 48.5C6 25.0279 25.0279 6 48.5 6V-6C18.4005 -6 -6 18.4005 -6 48.5H6ZM48.5 6C71.9721 6 91 25.0279 91 48.5H103C103 18.4005 78.5995 -6 48.5 -6V6Z" fill="white" mask="url(#path-1-inside-1)"/>
</svg>
