<svg width="70" height="70" viewBox="0 0 70 70" fill="none" xmlns="http://www.w3.org/2000/svg">
<path fill-rule="evenodd" clip-rule="evenodd" d="M35 0C15.67 0 0 15.67 0 35C0 54.33 15.67 70 35 70C54.33 70 70 54.33 70 35C70 15.67 54.33 0 35 0ZM25.5858 36.4142L38.3137 49.1421C39.0948 49.9232 40.3611 49.9232 41.1421 49.1421C41.9232 48.3611 41.9232 47.0948 41.1421 46.3137L29.8284 35L41.1421 23.6863C41.9232 22.9052 41.9232 21.6389 41.1421 20.8579C40.3611 20.0768 39.0948 20.0768 38.3137 20.8579L25.5858 33.5858C24.8047 34.3668 24.8047 35.6332 25.5858 36.4142Z" fill="white"/>
</svg>
