<svg width="788" height="789" viewBox="0 0 788 789" fill="none" xmlns="http://www.w3.org/2000/svg">
<path d="M644 692.176C645.937 694.478 649.378 694.776 651.654 692.807C714.953 638.028 759.19 564.527 777.957 482.947C778.632 480.015 776.758 477.114 773.816 476.479C770.875 475.845 767.98 477.718 767.304 480.651C749.047 559.87 706.089 631.246 644.637 684.468C642.362 686.438 642.062 689.873 644 692.176Z" fill="white"/>
<path d="M782.029 374.346C785.034 374.19 787.348 371.627 787.15 368.625C784.608 329.955 776.383 291.87 762.738 255.598C761.678 252.782 758.513 251.402 755.711 252.501C752.91 253.599 751.533 256.759 752.592 259.576C765.81 294.757 773.787 331.689 776.267 369.189C776.466 372.192 779.024 374.502 782.029 374.346Z" fill="white"/>
<path d="M702.323 157.88C704.712 156.05 705.167 152.626 703.304 150.263C651.479 84.5236 580.078 36.9712 499.442 14.4914C496.543 13.6834 493.56 15.4227 492.792 18.3321C492.024 21.2415 493.762 24.2192 496.661 25.0284C574.962 46.8903 644.298 93.0681 694.653 156.891C696.517 159.253 699.935 159.71 702.323 157.88Z" fill="white"/>
<path d="M377.4 5.78165C377.275 2.77516 374.736 0.434953 371.732 0.600984C319.91 3.46471 269.162 16.5262 222.397 39.0366C219.686 40.3417 218.593 43.6167 219.935 46.3097C221.277 49.0027 224.547 50.0939 227.259 48.7899C272.65 26.963 321.895 14.2883 372.183 11.4895C375.187 11.3223 377.524 8.78814 377.4 5.78165Z" fill="white"/>
<path d="M133.003 105.532C130.988 103.297 127.539 103.117 125.332 105.162C63.9355 162.066 22.2291 237.031 6.2522 319.203C5.67789 322.157 7.64966 324.993 10.6111 325.526C13.5725 326.06 16.4019 324.089 16.9774 321.135C32.5247 241.34 73.0254 168.542 132.629 113.257C134.835 111.21 135.018 107.767 133.003 105.532Z" fill="white"/>
<path d="M5.51089 423.237C2.51004 423.459 0.253677 426.073 0.517352 429.07C6.22764 493.985 27.9312 556.477 63.6871 610.958C65.3382 613.473 68.7289 614.126 71.2215 612.44C73.7141 610.754 74.3647 607.369 72.7146 604.853C38.023 551.949 16.9538 491.283 11.3854 428.265C11.1206 425.268 8.51173 423.014 5.51089 423.237Z" fill="white"/>
<path d="M138.107 687.988C136.131 690.258 136.368 693.703 138.665 695.647C155.359 709.773 173.198 722.488 192 733.658C194.587 735.195 197.92 734.294 199.421 731.686C200.922 729.078 200.022 725.751 197.436 724.213C179.245 713.395 161.98 701.091 145.819 687.426C143.521 685.483 140.082 685.718 138.107 687.988Z" fill="white"/>
<path d="M289.032 769.263C288.224 772.162 289.92 775.171 292.829 775.939C383.137 799.775 478.983 790.792 563.29 750.592C566.006 749.297 567.113 746.025 565.781 743.327C564.448 740.629 561.181 739.527 558.464 740.821C476.564 779.834 383.478 788.558 295.756 765.441C292.846 764.675 289.84 766.365 289.032 769.263Z" fill="white"/>
<path d="M649.69 690.538C648.7 691.396 647.172 691.286 646.295 690.244C645.432 689.219 645.544 687.651 646.601 686.736C708.534 633.098 751.827 561.163 770.227 481.324C770.541 479.963 771.874 479.13 773.184 479.412C774.515 479.699 775.327 480.998 775.033 482.275C756.409 563.234 712.509 636.176 649.69 690.538ZM784.157 368.822C784.243 370.128 783.235 371.28 781.874 371.35C780.534 371.42 779.353 370.385 779.26 368.991C776.761 331.198 768.722 293.977 755.4 258.521C754.909 257.213 755.558 255.783 756.806 255.294C758.076 254.796 759.469 255.429 759.93 256.655C773.471 292.651 781.634 330.446 784.157 368.822ZM700.948 152.12C701.759 153.149 701.58 154.67 700.499 155.499C699.435 156.314 697.874 156.13 697.009 155.033C646.26 90.7107 576.381 44.1718 497.467 22.1389C496.121 21.763 495.35 20.3936 495.692 19.0978C496.04 17.7808 497.374 17.0294 498.636 17.3812C578.659 39.6901 649.517 86.8809 700.948 152.12ZM371.897 3.59641C373.204 3.52419 374.346 4.54384 374.402 5.90579C374.458 7.2459 373.411 8.41654 372.016 8.49414C321.335 11.3148 271.704 24.0887 225.959 46.0862C224.7 46.6914 223.218 46.1717 222.62 44.9713C222.012 43.7514 222.519 42.3075 223.698 41.7397C270.108 19.4006 320.47 6.43836 371.897 3.59641ZM127.371 107.363C128.332 106.472 129.863 106.529 130.775 107.541C131.672 108.536 131.613 110.107 130.589 111.057C70.5191 166.774 29.7016 240.142 14.0328 320.562C13.7655 321.933 12.4619 322.811 11.1429 322.574C9.80245 322.332 8.94701 321.062 9.19705 319.776C25.0525 238.229 66.4417 163.833 127.371 107.363ZM3.50581 428.807C3.39108 427.503 4.37333 426.329 5.73248 426.228C7.06984 426.129 8.27414 427.138 8.39708 428.529C14.009 492.04 35.2429 553.18 70.2059 606.498C70.9718 607.666 70.6518 609.204 69.541 609.955C68.412 610.718 66.9136 610.406 66.1952 609.312C30.7112 555.245 9.17268 493.229 3.50581 428.807ZM140.603 693.357C139.603 692.511 139.475 690.986 140.37 689.958C141.25 688.946 142.815 688.815 143.882 689.716C160.169 703.489 177.569 715.889 195.903 726.791C197.103 727.505 197.49 729.027 196.821 730.19C196.141 731.371 194.657 731.747 193.532 731.079C174.874 719.993 157.17 707.376 140.603 693.357ZM293.595 773.038C292.328 772.704 291.556 771.38 291.922 770.069C292.281 768.778 293.639 767.986 294.991 768.342C383.399 791.639 477.214 782.847 559.754 743.529C561.016 742.928 562.498 743.454 563.091 744.656C563.694 745.876 563.182 747.32 561.999 747.884C478.333 787.778 383.216 796.693 293.595 773.038Z" stroke="#805240" stroke-opacity="0.15" stroke-width="6"/>
<path d="M493.4 705.884C494.13 708.294 496.677 709.658 499.076 708.895C565.807 687.675 624.063 645.773 665.408 589.257C666.894 587.226 666.411 584.377 664.359 582.919C662.307 581.461 659.464 581.946 657.977 583.977C617.804 638.846 561.232 679.537 496.433 700.17C494.035 700.934 492.671 703.475 493.4 705.884Z" fill="white"/>
<path d="M704.372 507.122C706.734 507.994 709.358 506.787 710.197 504.414C721.003 473.851 727.246 441.862 728.726 409.478C728.841 406.964 726.863 404.859 724.348 404.779C721.832 404.699 719.731 406.674 719.615 409.188C718.167 440.592 712.113 471.613 701.645 501.257C700.807 503.631 702.011 506.251 704.372 507.122Z" fill="white"/>
<path d="M714.531 314.43C716.971 313.812 718.45 311.33 717.798 308.899C699.653 241.266 660.46 181.154 605.895 137.268C603.934 135.69 601.066 136.043 599.516 138.026C597.965 140.009 598.319 142.871 600.28 144.449C653.254 187.091 691.314 245.465 708.962 311.139C709.615 313.57 712.091 315.049 714.531 314.43Z" fill="white"/>
<path d="M514.958 90.3029C515.854 87.9508 514.675 85.3143 512.311 84.4506C471.532 69.5525 428.214 62.8475 384.839 64.7198C382.324 64.8284 380.403 66.985 380.547 69.498C380.69 72.011 382.843 73.9287 385.358 73.8211C427.45 72.0207 469.486 78.5272 509.065 92.9691C511.429 93.8319 514.062 92.655 514.958 90.3029Z" fill="white"/>
<path d="M294.183 86.336C293.372 83.9532 290.78 82.6766 288.408 83.5206C222.438 107.002 165.644 150.864 126.249 208.756C124.833 210.837 125.413 213.667 127.513 215.055C129.613 216.442 132.439 215.861 133.856 213.78C172.136 157.574 227.289 114.979 291.347 92.1503C293.718 91.3053 294.994 88.7187 294.183 86.336Z" fill="white"/>
<path d="M91.3517 288.479C88.9717 287.66 86.3749 288.924 85.5885 291.315C68.5581 343.098 64.6208 398.296 74.1289 451.971C74.5679 454.45 76.959 456.07 79.4312 455.597C81.9034 455.124 83.5205 452.736 83.0824 450.257C73.8723 398.145 77.6945 344.561 94.2081 294.283C94.9936 291.891 93.7317 289.298 91.3517 288.479Z" fill="white"/>
<path d="M105.916 535.739C103.648 536.832 102.693 539.557 103.818 541.809C111.989 558.177 121.506 573.836 132.272 588.626C133.754 590.661 136.613 591.069 138.627 589.559C140.642 588.05 141.048 585.195 139.568 583.16C129.154 568.842 119.943 553.688 112.029 537.851C110.904 535.599 108.183 534.646 105.916 535.739Z" fill="white"/>
<path d="M195.136 648.014C193.559 649.975 193.87 652.848 195.853 654.398C257.407 702.516 334.046 727.234 412.115 724.149C414.63 724.049 416.561 721.9 416.426 719.386C416.292 716.873 414.144 714.947 411.629 715.046C335.802 718.013 261.37 694.006 201.566 647.294C199.582 645.745 196.714 646.052 195.136 648.014Z" fill="white"/>
<path d="M498.166 706.036C497.387 706.284 496.524 705.848 496.272 705.015C496.026 704.203 496.48 703.304 497.343 703.029C562.748 682.203 619.849 641.132 660.397 585.749C660.932 585.018 661.93 584.873 662.621 585.365C663.331 585.869 663.47 586.826 662.987 587.486C622.018 643.488 564.292 685.009 498.166 706.036ZM707.368 503.414C707.096 504.185 706.229 504.61 705.411 504.308C704.615 504.014 704.173 503.109 704.474 502.256C715.039 472.335 721.151 441.024 722.612 409.326C722.653 408.422 723.403 407.75 724.252 407.777C725.123 407.805 725.767 408.525 725.729 409.341C724.263 441.431 718.076 473.129 707.368 503.414ZM714.901 309.676C715.113 310.466 714.637 311.308 713.794 311.522C712.972 311.731 712.094 311.235 711.859 310.361C694.047 244.072 655.631 185.152 602.161 142.112C601.456 141.545 601.357 140.542 601.879 139.873C602.415 139.188 603.377 139.093 604.015 139.605C658.084 183.093 696.921 242.658 714.901 309.676ZM511.281 87.2684C512.049 87.5488 512.465 88.4206 512.155 89.2346C511.852 90.0282 510.943 90.4609 510.093 90.1509C470.145 75.5739 427.716 69.0066 385.23 70.8239C384.326 70.8625 383.59 70.1751 383.542 69.3272C383.492 68.4575 384.152 67.7522 384.968 67.717C427.949 65.8617 470.873 72.5058 511.281 87.2684ZM289.414 86.3469C290.185 86.0726 291.062 86.4792 291.343 87.3028C291.616 88.1059 291.192 89.0204 290.339 89.3244C225.683 112.367 170.014 155.359 131.376 212.091C130.866 212.84 129.874 213.019 129.166 212.551C128.441 212.072 128.269 211.12 128.729 210.444C167.766 153.078 224.044 109.615 289.414 86.3469ZM88.4383 292.253C88.6936 291.476 89.5517 291.032 90.3752 291.316C91.178 291.592 91.6403 292.487 91.3579 293.347C74.6899 344.095 70.832 398.18 80.1282 450.78C80.2857 451.671 79.7011 452.491 78.8671 452.65C78.0118 452.814 77.2254 452.253 77.0829 451.448C67.6613 398.26 71.5627 343.565 88.4383 292.253ZM106.502 540.469C106.137 539.739 106.434 538.819 107.218 538.441C107.983 538.072 108.941 538.383 109.346 539.192C117.334 555.177 126.631 570.473 137.142 584.925C137.674 585.656 137.508 586.649 136.829 587.159C136.131 587.681 135.179 587.521 134.698 586.861C124.03 572.205 114.598 556.688 106.502 540.469ZM197.7 652.035C197.055 651.53 196.929 650.571 197.474 649.894C198.005 649.233 199.005 649.101 199.719 649.658C260.082 696.807 335.21 721.038 411.746 718.043C412.652 718.008 413.386 718.7 413.431 719.546C413.477 720.414 412.814 721.119 411.996 721.151C334.637 724.209 258.695 699.715 197.7 652.035Z" stroke="#805240" stroke-opacity="0.15" stroke-width="6"/>
<path d="M520.61 627.322C521.547 629.122 523.768 629.825 525.555 628.864C575.289 602.128 615.232 560.261 639.599 509.326C640.475 507.495 639.669 505.309 637.826 504.458C635.983 503.608 633.802 504.414 632.925 506.245C609.241 555.702 570.453 596.359 522.165 622.342C520.377 623.304 519.674 625.521 520.61 627.322Z" fill="white"/>
<path d="M658.273 438.439C660.274 438.779 662.174 437.433 662.487 435.427C666.508 409.599 666.702 383.318 663.062 357.433C662.78 355.423 660.899 354.049 658.893 354.36C656.888 354.67 655.516 356.547 655.798 358.557C659.318 383.661 659.13 409.147 655.24 434.196C654.928 436.202 656.272 438.099 658.273 438.439Z" fill="white"/>
<path d="M637.686 284.214C639.527 283.361 640.331 281.174 639.453 279.344C615.02 228.44 575.024 186.624 525.257 159.951C523.468 158.993 521.247 159.698 520.313 161.5C519.379 163.302 520.085 165.518 521.874 166.478C570.196 192.399 609.035 233.007 632.782 282.433C633.661 284.263 635.844 285.067 637.686 284.214Z" fill="white"/>
<path d="M446.205 136.245C446.566 134.248 445.24 132.334 443.238 132.001C408.705 126.254 373.377 127.378 339.279 135.309C337.302 135.768 336.1 137.763 336.587 139.734C337.074 141.704 339.066 142.904 341.043 142.445C374.135 134.762 408.417 133.671 441.931 139.234C443.933 139.567 445.845 138.243 446.205 136.245Z" fill="white"/>
<path d="M270.643 165.914C269.646 164.146 267.402 163.52 265.648 164.541C216.854 192.956 178.361 236.159 155.743 287.896C154.93 289.755 155.811 291.912 157.681 292.699C159.552 293.487 161.705 292.606 162.519 290.747C184.504 240.512 221.884 198.557 269.259 170.944C271.013 169.921 271.64 167.682 270.643 165.914Z" fill="white"/>
<path d="M139.935 356.266C137.927 355.97 136.057 357.358 135.789 359.37C129.988 402.941 135.071 447.272 150.584 488.399C151.3 490.298 153.436 491.227 155.325 490.485C157.214 489.742 158.141 487.61 157.425 485.71C142.381 445.778 137.446 402.742 143.061 360.441C143.328 358.429 141.943 356.561 139.935 356.266Z" fill="white"/>
<path d="M188.226 550.064C186.591 551.267 186.24 553.569 187.465 555.187C196.374 566.944 206.244 577.941 216.975 588.062C218.452 589.455 220.778 589.353 222.15 587.857C223.523 586.362 223.421 584.039 221.945 582.646C211.563 572.846 202.011 562.204 193.385 550.829C192.159 549.212 189.86 548.861 188.226 550.064Z" fill="white"/>
<path d="M275.565 625.788C274.607 627.577 275.28 629.807 277.082 630.741C333.014 659.733 397.426 667.94 458.841 653.898C460.819 653.445 462.03 651.455 461.551 649.482C461.071 647.51 459.082 646.303 457.104 646.755C397.448 660.37 334.891 652.4 280.554 624.263C278.752 623.329 276.524 623.999 275.565 625.788Z" fill="white"/>
<path d="M524.135 626.222C523.844 626.378 523.449 626.277 523.272 625.938C523.106 625.618 523.218 625.182 523.586 624.984C572.435 598.699 611.672 557.571 635.631 507.541C635.812 507.164 636.241 507.031 636.569 507.182C636.916 507.343 637.036 507.733 636.893 508.031C612.8 558.392 573.308 599.787 524.135 626.222ZM659.522 434.966C659.472 435.292 659.154 435.546 658.775 435.482C658.419 435.421 658.14 435.069 658.204 434.657C662.14 409.317 662.33 383.536 658.769 358.141C658.711 357.728 658.995 357.38 659.352 357.324C659.731 357.266 660.046 357.525 660.091 357.851C663.69 383.444 663.499 409.429 659.522 434.966ZM636.748 280.642C636.891 280.941 636.772 281.331 636.425 281.491C636.098 281.643 635.668 281.511 635.487 281.134C611.464 231.134 572.174 190.056 523.292 163.834C522.924 163.636 522.811 163.201 522.977 162.881C523.153 162.541 523.548 162.439 523.839 162.596C573.046 188.967 612.591 230.312 636.748 280.642ZM442.745 134.96C443.07 135.014 443.321 135.335 443.253 135.712C443.189 136.068 442.834 136.343 442.422 136.275C408.52 130.647 373.84 131.75 340.364 139.522C339.958 139.617 339.586 139.365 339.499 139.014C339.407 138.641 339.637 138.305 339.958 138.231C373.672 130.39 408.602 129.278 442.745 134.96ZM267.158 167.133C267.444 166.967 267.842 167.054 268.03 167.388C268.207 167.702 268.11 168.141 267.749 168.352C219.824 196.285 182.01 238.726 159.77 289.544C159.603 289.927 159.178 290.074 158.845 289.934C158.492 289.786 158.36 289.4 158.492 289.097C180.855 237.944 218.914 195.228 267.158 167.133ZM138.763 359.766C138.806 359.439 139.118 359.178 139.498 359.234C139.856 359.286 140.142 359.632 140.087 360.046C134.407 402.838 139.399 446.372 154.618 486.768C154.765 487.159 154.564 487.56 154.228 487.693C153.871 487.833 153.507 487.649 153.391 487.341C138.053 446.677 133.027 402.846 138.763 359.766ZM189.857 553.375C189.658 553.113 189.695 552.707 190.004 552.48C190.296 552.265 190.743 552.31 190.995 552.642L193.385 550.829L190.995 552.642C199.721 564.149 209.384 574.914 219.885 584.827C220.189 585.114 220.184 585.562 219.94 585.829C219.68 586.112 219.273 586.106 219.034 585.88C208.424 575.872 198.665 565 189.857 553.375ZM278.462 628.078C278.168 627.926 278.029 627.542 278.21 627.205C278.38 626.888 278.803 626.734 279.175 626.927C334.141 655.391 397.424 663.453 457.771 649.68C458.179 649.587 458.551 649.841 458.636 650.191C458.726 650.563 458.495 650.899 458.172 650.973C397.45 664.857 333.764 656.743 278.462 628.078Z" stroke="#805240" stroke-opacity="0.15" stroke-width="6"/>
</svg>
