<svg width="79" height="79" viewBox="0 0 79 79" fill="none" xmlns="http://www.w3.org/2000/svg">
<path fill-rule="evenodd" clip-rule="evenodd" d="M61.4947 20.5686L53.4781 58.2583C53.0885 60.4018 50.7611 61.0299 49.209 60.2539L49.1061 60.2024L37.9006 52.6958L32.324 57.9682L32.2653 58.0151C30.7102 59.2592 28.3846 58.6446 27.7341 56.6931L27.731 56.6838L23.6822 44.0875L13.0921 39.74L13.0793 39.7345C11.791 39.1824 11.351 37.9154 11.351 36.9893C11.351 36.0631 11.791 34.7961 13.0793 34.244L13.1141 34.2291L57.5782 17.3303L57.6523 17.3091C58.6121 17.0349 59.6192 17.2286 60.3767 17.7968C61.157 18.3819 61.6653 19.3742 61.5034 20.5078L61.4947 20.5686ZM25.1529 42.7281L29.457 56.1188C29.6961 56.8361 30.533 57.0752 31.1308 56.597L37.7066 50.3799L50.0212 58.6295C50.7386 58.9882 51.5755 58.6295 51.6951 57.9121L59.7055 20.2509C59.8251 19.414 58.9882 18.8162 58.1513 19.0553L13.7947 35.9132C12.9578 36.2719 12.9578 37.7066 13.7947 38.0653L25.1529 42.7281ZM39.5 5.44828C20.6561 5.44828 5.44828 20.6561 5.44828 39.5C5.44828 58.3439 20.6561 73.5517 39.5 73.5517C58.3439 73.5517 73.5517 58.3439 73.5517 39.5C73.5517 20.6561 58.3439 5.44828 39.5 5.44828ZM3.63218 39.5C3.63218 19.6531 19.6531 3.63218 39.5 3.63218C59.3469 3.63218 75.3678 19.6531 75.3678 39.5C75.3678 59.3469 59.3469 75.3678 39.5 75.3678C19.6531 75.3678 3.63218 59.3469 3.63218 39.5Z" fill="#0011AC" fill-opacity="0.35"/>
<path d="M30.7722 52.1734L31.4895 45.2389L51.5755 25.7507L27.4245 41.6521" fill="#0011AC" fill-opacity="0.35"/>
<path fill-rule="evenodd" clip-rule="evenodd" d="M79 39.5C79 61.3152 61.3152 79 39.5 79C17.6848 79 0 61.3152 0 39.5C0 17.6848 17.6848 0 39.5 0C61.3152 0 79 17.6848 79 39.5ZM39.5 75.3678C59.3092 75.3678 75.3678 59.3092 75.3678 39.5C75.3678 19.6908 59.3092 3.63218 39.5 3.63218C19.6908 3.63218 3.63218 19.6908 3.63218 39.5C3.63218 59.3092 19.6908 75.3678 39.5 75.3678Z" fill="#0011AC" fill-opacity="0.35"/>
</svg>
